<?xml version="1.0" encoding="UTF-8"?>
<!-- 2018-07-13 19:17:34 Generated by QCAD SVG Exporter -->
<svg width="96.5395mm" height="54.0224mm" viewBox="0 -54.0112 96.5395 54.0224" version="1.1" xmlns="http://www.w3.org/2000/svg" style="stroke-linecap:round;stroke-linejoin:round;fill:none">
    <g transform="scale(1,-1)">
        <!-- Line -->
        <path d="M0,0 L32,0 " style="stroke:#ff0000;stroke-width:0.25;"/>
        <!-- Line -->
        <path d="M0,54 L32,54 " style="stroke:#ff0000;stroke-width:0.25;"/>
        <!-- Line -->
        <path d="M0,25 L0,0 " style="stroke:#ff0000;stroke-width:0.25;"/>
        <!-- Line -->
        <path d="M0,29 L0,54 " style="stroke:#ff0000;stroke-width:0.25;"/>
        <!-- Arc -->
        <path d="M29.0082,0 A100,100 0 0,1 96.2867,24.6718 " style="stroke:#ff0000;stroke-width:0.25;"/>
        <!-- Arc -->
        <path d="M29.0082,54 A100,100 0 0,0 96.2867,29.3282 " style="stroke:#ff0000;stroke-width:0.25;"/>
        <!-- Line -->
        <path d="M96.2867,24.6718 L96.5395,24.9834 " style="stroke:#ff0000;stroke-width:0.25;"/>
        <!-- Line -->
        <path d="M96.2867,29.3282 L96.5395,29.0166 " style="stroke:#ff0000;stroke-width:0.25;"/>
        <!-- Circle -->
        <circle cx="2.017273888793632" cy="2.9887371399176903" r="0.5" style="stroke:#ff0000;stroke-width:0.25;"/>
        <!-- Circle -->
        <circle cx="2.017273888793632" cy="51.0112628600823" r="0.5" style="stroke:#ff0000;stroke-width:0.25;"/>
        <!-- Circle -->
        <circle cx="5.0406584004915445" cy="2.9654803359815523" r="0.5" style="stroke:#ff0000;stroke-width:0.25;"/>
        <!-- Circle -->
        <circle cx="5.0406584004915445" cy="51.03451966401846" r="0.5" style="stroke:#ff0000;stroke-width:0.25;"/>
        <!-- Circle -->
        <circle cx="8.01752930431718" cy="2.9654803359815523" r="0.49999999999999956" style="stroke:#ff0000;stroke-width:0.25;"/>
        <!-- Circle -->
        <circle cx="8.01752930431718" cy="51.03451966401843" r="0.49999999999999956" style="stroke:#ff0000;stroke-width:0.25;"/>
        <!-- Circle -->
        <circle cx="11.017657012078956" cy="2.9887371399176903" r="0.5" style="stroke:#ff0000;stroke-width:0.25;"/>
        <!-- Circle -->
        <circle cx="11.017657012078956" cy="51.01126286008231" r="0.5" style="stroke:#ff0000;stroke-width:0.25;"/>
        <!-- Circle -->
        <circle cx="14.01220308689605" cy="2.9887371399176903" r="0.5" style="stroke:#ff0000;stroke-width:0.25;"/>
        <!-- Circle -->
        <circle cx="14.01220308689605" cy="51.0112628600823" r="0.5" style="stroke:#ff0000;stroke-width:0.25;"/>
        <!-- Circle -->
        <circle cx="16.98907399072169" cy="2.9654803359815523" r="0.5" style="stroke:#ff0000;stroke-width:0.25;"/>
        <!-- Circle -->
        <circle cx="16.98907399072169" cy="51.03451966401842" r="0.5" style="stroke:#ff0000;stroke-width:0.25;"/>
        <!-- Circle -->
        <circle cx="20.012458502419605" cy="2.9887371399176903" r="0.5" style="stroke:#ff0000;stroke-width:0.25;"/>
        <!-- Circle -->
        <circle cx="20.012458502419605" cy="51.01126286008231" r="0.5" style="stroke:#ff0000;stroke-width:0.25;"/>
        <!-- Circle -->
        <circle cx="23.035843014117518" cy="2.942223532045414" r="0.5" style="stroke:#ff0000;stroke-width:0.25;"/>
        <!-- Circle -->
        <circle cx="23.035843014117518" cy="51.05777646795457" r="0.5" style="stroke:#ff0000;stroke-width:0.25;"/>
        <!-- Circle -->
        <circle cx="26.03597072187929" cy="2.9654803359815523" r="0.5" style="stroke:#ff0000;stroke-width:0.25;"/>
        <!-- Circle -->
        <circle cx="26.03597072187929" cy="51.03451966401845" r="0.5" style="stroke:#ff0000;stroke-width:0.25;"/>
        <!-- Circle -->
        <circle cx="29.012841625704926" cy="2.9887371399176903" r="0.5" style="stroke:#ff0000;stroke-width:0.25;"/>
        <!-- Circle -->
        <circle cx="29.012841625704922" cy="51.01126286008231" r="0.5" style="stroke:#ff0000;stroke-width:0.25;"/>
        <!-- Circle -->
        <circle cx="32.0129693334667" cy="2.9887371399176903" r="0.5" style="stroke:#ff0000;stroke-width:0.25;"/>
        <!-- Circle -->
        <circle cx="32.0129693334667" cy="51.01126286008231" r="0.5" style="stroke:#ff0000;stroke-width:0.25;"/>
        <!-- Circle -->
        <circle cx="35.01309704122848" cy="2.9887371399176903" r="0.5" style="stroke:#ff0000;stroke-width:0.25;"/>
        <!-- Circle -->
        <circle cx="35.01309704122848" cy="51.01126286008231" r="0.5" style="stroke:#ff0000;stroke-width:0.25;"/>
        <!-- Circle -->
        <circle cx="38.013224748990254" cy="3.128277963534517" r="0.5" style="stroke:#ff0000;stroke-width:0.25;"/>
        <!-- Circle -->
        <circle cx="38.013224748990254" cy="50.871722036465485" r="0.5" style="stroke:#ff0000;stroke-width:0.25;"/>
        <!-- Circle -->
        <circle cx="41.013352456752024" cy="3.477130022576584" r="0.5" style="stroke:#ff0000;stroke-width:0.25;"/>
        <!-- Circle -->
        <circle cx="41.013352456752024" cy="50.52286997742341" r="0.5" style="stroke:#ff0000;stroke-width:0.25;"/>
        <!-- Circle -->
        <circle cx="44.03673696844994" cy="3.988779709171615" r="0.5" style="stroke:#ff0000;stroke-width:0.25;"/>
        <!-- Circle -->
        <circle cx="44.03673696844994" cy="50.01122029082839" r="0.5" style="stroke:#ff0000;stroke-width:0.25;"/>
        <!-- Circle -->
        <circle cx="50.03699238397349" cy="5.0585926902339535" r="0.5" style="stroke:#ff0000;stroke-width:0.25;"/>
        <!-- Circle -->
        <circle cx="50.03699238397349" cy="48.94140730976605" r="0.5" style="stroke:#ff0000;stroke-width:0.25;"/>
        <!-- Circle -->
        <circle cx="46.99035106833943" cy="4.546943003638922" r="0.5" style="stroke:#ff0000;stroke-width:0.25;"/>
        <!-- Circle -->
        <circle cx="46.990351068339436" cy="49.453056996361084" r="0.5" style="stroke:#ff0000;stroke-width:0.25;"/>
        <!-- Circle -->
        <circle cx="53.11814784847649" cy="5.6050248489337235" r="0.5" style="stroke:#ff0000;stroke-width:0.25;"/>
        <!-- Circle -->
        <circle cx="53.11814784847648" cy="48.39497515106628" r="0.5" style="stroke:#ff0000;stroke-width:0.25;"/>
        <!-- Circle -->
        <circle cx="56.06011226177095" cy="6.240689538561194" r="0.5" style="stroke:#ff0000;stroke-width:0.25;"/>
        <!-- Circle -->
        <circle cx="56.06011226177095" cy="47.759310461438815" r="0.5" style="stroke:#ff0000;stroke-width:0.25;"/>
        <!-- Circle -->
        <circle cx="59.00597409368174" cy="7.0934390162195795" r="0.5" style="stroke:#ff0000;stroke-width:0.25;"/>
        <!-- Circle -->
        <circle cx="59.00597409368174" cy="46.90656098378042" r="0.5" style="stroke:#ff0000;stroke-width:0.25;"/>
        <!-- Circle -->
        <circle cx="62.03362708103124" cy="8.062472513558653" r="0.5" style="stroke:#ff0000;stroke-width:0.25;"/>
        <!-- Circle -->
        <circle cx="62.03362708103124" cy="45.937527486441354" r="0.5" style="stroke:#ff0000;stroke-width:0.25;"/>
        <!-- Circle -->
        <circle cx="65.03763092278237" cy="9.070267350791292" r="0.5" style="stroke:#ff0000;stroke-width:0.25;"/>
        <!-- Circle -->
        <circle cx="65.03763092278237" cy="44.92973264920873" r="0.5" style="stroke:#ff0000;stroke-width:0.25;"/>
        <!-- Circle -->
        <circle cx="68.02225409458673" cy="10.19434620770462" r="0.5" style="stroke:#ff0000;stroke-width:0.25;"/>
        <!-- Circle -->
        <circle cx="68.02225409458673" cy="43.805653792295374" r="0.5" style="stroke:#ff0000;stroke-width:0.25;"/>
        <!-- Circle -->
        <circle cx="71.02625793633786" cy="11.314413830304073" r="0.5" style="stroke:#ff0000;stroke-width:0.25;"/>
        <!-- Circle -->
        <circle cx="71.02625793633786" cy="42.685586169695966" r="0.5" style="stroke:#ff0000;stroke-width:0.25;"/>
        <!-- Circle -->
        <circle cx="74.0108811081422" cy="13.000532115674062" r="0.5" style="stroke:#ff0000;stroke-width:0.25;"/>
        <!-- Circle -->
        <circle cx="74.0108811081422" cy="40.99946788432602" r="0.5" style="stroke:#ff0000;stroke-width:0.25;"/>
        <!-- Circle -->
        <circle cx="77.03426561984011" cy="14.318417672055205" r="0.5" style="stroke:#ff0000;stroke-width:0.25;"/>
        <!-- Circle -->
        <circle cx="77.03426561984011" cy="39.681582327944795" r="0.5" style="stroke:#ff0000;stroke-width:0.25;"/>
        <!-- Circle -->
        <circle cx="80.01888879164446" cy="16.06267796726554" r="0.5" style="stroke:#ff0000;stroke-width:0.25;"/>
        <!-- Circle -->
        <circle cx="80.01888879164446" cy="37.93732203273446" r="0.5" style="stroke:#ff0000;stroke-width:0.25;"/>
        <!-- Circle -->
        <circle cx="83.02289263339559" cy="18.078267641730815" r="0.5" style="stroke:#ff0000;stroke-width:0.25;"/>
        <!-- Circle -->
        <circle cx="83.02289263339559" cy="35.92173235826921" r="0.5" style="stroke:#ff0000;stroke-width:0.25;"/>
        <!-- Circle -->
        <circle cx="86.02689647514673" cy="20.09385731619609" r="0.5" style="stroke:#ff0000;stroke-width:0.25;"/>
        <!-- Circle -->
        <circle cx="86.02689647514673" cy="33.90614268380388" r="0.5" style="stroke:#ff0000;stroke-width:0.25;"/>
        <!-- Circle -->
        <circle cx="89.01151964695107" cy="22.051304980821023" r="0.5" style="stroke:#ff0000;stroke-width:0.25;"/>
        <!-- Circle -->
        <circle cx="89.01151964695107" cy="31.948695019179002" r="0.5" style="stroke:#ff0000;stroke-width:0.25;"/>
        <!-- Circle -->
        <circle cx="91.80233611928762" cy="23.931229965658826" r="0.5" style="stroke:#ff0000;stroke-width:0.25;"/>
        <!-- Circle -->
        <circle cx="91.80233611928762" cy="30.068770034341174" r="0.5" style="stroke:#ff0000;stroke-width:0.25;"/>
        <!-- Line -->
        <path d="M96.5395,25.0166 L96.5395,29.0166 " style="stroke:#ff0000;stroke-width:0.25;"/>
        <!-- Line -->
        <path d="M0,29 L0,25 " style="stroke:#ff0000;stroke-width:0.25;"/>
        <!-- Text: Alex Eames -->
        <g>
            <path d="M8.4722,10.312 L8.2875,10.7974 L6.715,10.7974 L6.5303,10.3014 C6.4581,10.1079 6.3966,9.9773 6.3456,9.9096 C6.2945,9.8419 6.211,9.808 6.0949,9.808 C5.9964,9.808 5.9093,9.8441 5.8337,9.9162 C5.758,9.9883 5.7202,10.0701 5.7202,10.1616 C5.7202,10.2143 5.729,10.2689 5.7466,10.3252 C5.7642,10.3814 5.7932,10.4597 5.8337,10.56 L6.8231,13.0719 C6.8513,13.144 6.8851,13.2306 6.9247,13.3317 C6.9643,13.4329 7.0065,13.5169 7.0514,13.5837 C7.0962,13.6506 7.1551,13.7047 7.2281,13.746 C7.3011,13.7873 7.3913,13.808 7.4986,13.808 C7.6077,13.808 7.6987,13.7873 7.7717,13.746 C7.8447,13.7047 7.9036,13.6514 7.9485,13.5864 C7.9933,13.5213 8.0311,13.4514 8.0619,13.3766 C8.0927,13.3018 8.1318,13.202 8.1793,13.0771 L9.1899,10.5811 C9.269,10.3911 9.3086,10.253 9.3086,10.1668 C9.3086,10.0771 9.2712,9.9949 9.1965,9.9201 C9.1217,9.8454 9.0316,9.808 8.926,9.808 C8.8645,9.808 8.8117,9.819 8.7677,9.841 C8.7237,9.863 8.6868,9.8929 8.6569,9.9307 C8.627,9.9685 8.5949,10.0266 8.5606,10.1048 C8.5263,10.1831 8.4968,10.2522 8.4722,10.312 M6.9208,11.3858 L8.0764,11.3858 L7.4933,12.9821 Z M9.8336,10.246 L9.8336,13.37 C9.8336,13.5142 9.8657,13.6233 9.9299,13.6972 C9.9941,13.7711 10.0807,13.808 10.1898,13.808 C10.2988,13.808 10.3868,13.7715 10.4536,13.6985 C10.5205,13.6255 10.5539,13.516 10.5539,13.37 L10.5539,10.246 C10.5539,10.1 10.52,9.9905 10.4523,9.9175 C10.3846,9.8445 10.2971,9.808 10.1898,9.808 C10.0842,9.808 9.9985,9.8458 9.9325,9.9215 C9.8666,9.9971 9.8336,10.1053 9.8336,10.246 M13.3082,11.0956 L11.8992,11.0956 C11.901,10.932 11.934,10.7878 11.9982,10.6629 C12.0624,10.538 12.1477,10.4439 12.2541,10.3806 C12.3605,10.3172 12.4779,10.2856 12.6064,10.2856 C12.6925,10.2856 12.7713,10.2957 12.8425,10.3159 C12.9137,10.3361 12.9828,10.3678 13.0496,10.4109 C13.1165,10.454 13.178,10.5002 13.2343,10.5494 C13.2906,10.5987 13.3636,10.6655 13.4533,10.75 C13.4903,10.7816 13.543,10.7974 13.6116,10.7974 C13.6855,10.7974 13.7453,10.7772 13.791,10.7368 C13.8368,10.6963 13.8596,10.6391 13.8596,10.5653 C13.8596,10.5002 13.8341,10.4241 13.7831,10.337 C13.7321,10.25 13.6552,10.1664 13.5523,10.0864 C13.4494,10.0063 13.3201,9.9399 13.1644,9.8872 C13.0087,9.8344 12.8297,9.808 12.6275,9.808 C12.1648,9.808 11.8051,9.9399 11.5483,10.2038 C11.2915,10.4676 11.1631,10.8256 11.1631,11.2777 C11.1631,11.4905 11.1947,11.6879 11.2581,11.87 C11.3214,12.0521 11.4137,12.2082 11.5351,12.3383 C11.6565,12.4685 11.806,12.5683 11.9837,12.6378 C12.1613,12.7073 12.3583,12.742 12.5747,12.742 C12.8561,12.742 13.0976,12.6827 13.299,12.5639 C13.5004,12.4452 13.6512,12.2917 13.7515,12.1035 C13.8517,11.9153 13.9019,11.7236 13.9019,11.5283 C13.9019,11.3471 13.85,11.2297 13.7462,11.1761 C13.6424,11.1224 13.4964,11.0956 13.3082,11.0956 M11.8992,11.5046 L13.2053,11.5046 C13.1877,11.7508 13.1213,11.9351 13.0061,12.0573 C12.8909,12.1796 12.7392,12.2407 12.5509,12.2407 C12.3715,12.2407 12.2242,12.1787 12.109,12.0547 C11.9938,11.9307 11.9239,11.7473 11.8992,11.5046 M16.0706,10.1062 L15.5482,10.874 L15.0126,10.1062 C14.9352,9.9989 14.8697,9.9223 14.816,9.8766 C14.7624,9.8309 14.6942,9.808 14.6115,9.808 C14.5201,9.808 14.4422,9.8366 14.378,9.8938 C14.3138,9.9509 14.2817,10.0164 14.2817,10.0903 C14.2817,10.166 14.331,10.2741 14.4295,10.4149 L15.0812,11.3489 L14.5033,12.1273 C14.4031,12.2557 14.3529,12.3674 14.3529,12.4624 C14.3529,12.5362 14.3829,12.6004 14.4427,12.655 C14.5025,12.7095 14.5807,12.7368 14.6775,12.7368 C14.7619,12.7368 14.8318,12.713 14.8872,12.6655 C14.9427,12.618 15.0073,12.5433 15.0812,12.4412 L15.5482,11.8027 L16.002,12.4412 C16.0777,12.5468 16.1432,12.6224 16.1986,12.6682 C16.254,12.7139 16.323,12.7368 16.4057,12.7368 C16.5007,12.7368 16.5794,12.7099 16.6419,12.6563 C16.7043,12.6026 16.7355,12.538 16.7355,12.4624 C16.7355,12.4078 16.7228,12.3555 16.6973,12.3054 C16.6718,12.2552 16.6326,12.1959 16.5799,12.1273 L16.002,11.3489 L16.6537,10.4149 C16.7558,10.2689 16.8068,10.1589 16.8068,10.085 C16.8068,10.0094 16.7751,9.9443 16.7118,9.8898 C16.6485,9.8353 16.5702,9.808 16.477,9.808 C16.3943,9.808 16.3244,9.8317 16.2672,9.8792 C16.21,9.9267 16.1445,10.0024 16.0706,10.1062 M21.2735,13.1378 L19.5083,13.1378 L19.5083,12.1879 L21.1336,12.1879 C21.2532,12.1879 21.3425,12.1611 21.4014,12.1075 C21.4604,12.0538 21.4898,11.983 21.4898,11.8951 C21.4898,11.8071 21.4608,11.7354 21.4028,11.68 C21.3447,11.6246 21.255,11.5969 21.1336,11.5969 L19.5083,11.5969 L19.5083,10.4967 L21.3342,10.4967 C21.4573,10.4967 21.5501,10.4681 21.6125,10.4109 C21.675,10.3537 21.7062,10.2777 21.7062,10.1827 C21.7062,10.0912 21.675,10.0169 21.6125,9.9597 C21.5501,9.9025 21.4573,9.874 21.3342,9.874 L19.2049,9.874 C19.0342,9.874 18.9116,9.9118 18.8368,9.9874 C18.762,10.0631 18.7247,10.1853 18.7247,10.3542 L18.7247,13.2618 C18.7247,13.3744 18.7414,13.4663 18.7748,13.5376 C18.8082,13.6088 18.8605,13.6607 18.9318,13.6932 C19.003,13.7258 19.0941,13.742 19.2049,13.742 L21.2735,13.742 C21.3984,13.742 21.4912,13.7143 21.5518,13.6589 C21.6125,13.6035 21.6429,13.531 21.6429,13.4412 C21.6429,13.3498 21.6125,13.2763 21.5518,13.2209 C21.4912,13.1655 21.3984,13.1378 21.2735,13.1378 M24.0987,10.2143 C23.9246,10.0789 23.7561,9.9773 23.5934,9.9096 C23.4307,9.8419 23.2482,9.808 23.0459,9.808 C22.8612,9.808 22.699,9.8445 22.5591,9.9175 C22.4193,9.9905 22.3115,10.0894 22.2359,10.2143 C22.1603,10.3392 22.1224,10.4747 22.1224,10.6207 C22.1224,10.8177 22.1849,10.9857 22.3098,11.1246 C22.4347,11.2636 22.6062,11.3568 22.8243,11.4043 C22.87,11.4149 22.9835,11.4386 23.1647,11.4755 C23.3458,11.5125 23.5011,11.5463 23.6304,11.5771 C23.7596,11.6079 23.8999,11.6453 24.0512,11.6893 C24.0424,11.8792 24.0042,12.0186 23.9364,12.1075 C23.8687,12.1963 23.7284,12.2407 23.5156,12.2407 C23.3326,12.2407 23.195,12.2152 23.1027,12.1642 C23.0103,12.1132 22.9312,12.0367 22.8652,11.9346 C22.7992,11.8326 22.7526,11.7653 22.7253,11.7328 C22.6981,11.7003 22.6396,11.684 22.5499,11.684 C22.469,11.684 22.3991,11.7099 22.3401,11.7618 C22.2812,11.8137 22.2517,11.8801 22.2517,11.961 C22.2517,12.0877 22.2966,12.2108 22.3863,12.3304 C22.476,12.45 22.6158,12.5485 22.8058,12.6259 C22.9958,12.7033 23.2324,12.742 23.5156,12.742 C23.8322,12.742 24.0811,12.7047 24.2623,12.6299 C24.4435,12.5551 24.5714,12.4368 24.6462,12.275 C24.721,12.1132 24.7583,11.8986 24.7583,11.6312 C24.7583,11.4624 24.7579,11.319 24.757,11.2011 C24.7561,11.0833 24.7548,10.9522 24.7531,10.808 C24.7531,10.6726 24.7755,10.5314 24.8203,10.3845 C24.8652,10.2376 24.8876,10.1431 24.8876,10.1009 C24.8876,10.027 24.8529,9.9597 24.7834,9.899 C24.7139,9.8383 24.6352,9.808 24.5472,9.808 C24.4734,9.808 24.4004,9.8427 24.3283,9.9122 C24.2561,9.9817 24.1796,10.0824 24.0987,10.2143 M24.0512,11.2565 C23.9457,11.2179 23.7922,11.177 23.5908,11.1339 C23.3894,11.0908 23.25,11.0591 23.1726,11.0389 C23.0952,11.0186 23.0213,10.9791 22.9509,10.9201 C22.8806,10.8612 22.8454,10.779 22.8454,10.6734 C22.8454,10.5644 22.8867,10.4716 22.9694,10.3951 C23.0521,10.3186 23.1603,10.2803 23.2939,10.2803 C23.4364,10.2803 23.5679,10.3115 23.6884,10.374 C23.8089,10.4364 23.8973,10.5169 23.9536,10.6154 C24.0187,10.7244 24.0512,10.9039 24.0512,11.1536 Z M27.8849,11.2196 L27.8849,10.2618 C27.8849,10.1106 27.8506,9.9971 27.782,9.9215 C27.7134,9.8458 27.6228,9.808 27.5102,9.808 C27.4011,9.808 27.3128,9.8458 27.245,9.9215 C27.1773,9.9971 27.1434,10.1106 27.1434,10.2618 L27.1434,11.4096 C27.1434,11.5908 27.1373,11.7315 27.125,11.8317 C27.1127,11.932 27.0792,12.0142 27.0247,12.0784 C26.9702,12.1427 26.884,12.1748 26.7661,12.1748 C26.5304,12.1748 26.3752,12.0938 26.3004,11.932 C26.2257,11.7702 26.1883,11.538 26.1883,11.2354 L26.1883,10.2618 C26.1883,10.1123 26.1544,9.9993 26.0867,9.9228 C26.019,9.8463 25.9297,9.808 25.8189,9.808 C25.7099,9.808 25.6206,9.8463 25.5511,9.9228 C25.4816,9.9993 25.4469,10.1123 25.4469,10.2618 L25.4469,12.3225 C25.4469,12.458 25.4781,12.5609 25.5405,12.6312 C25.603,12.7016 25.6852,12.7368 25.7872,12.7368 C25.8858,12.7368 25.968,12.7038 26.0339,12.6378 C26.0999,12.5719 26.1329,12.4808 26.1329,12.3647 L26.1329,12.2961 C26.2578,12.4456 26.3915,12.5556 26.5339,12.6259 C26.6764,12.6963 26.8347,12.7315 27.0089,12.7315 C27.1901,12.7315 27.3457,12.6954 27.4759,12.6233 C27.6061,12.5512 27.7134,12.4421 27.7978,12.2961 C27.9192,12.4439 28.0493,12.5534 28.1883,12.6246 C28.3273,12.6959 28.4812,12.7315 28.65,12.7315 C28.8471,12.7315 29.0168,12.6928 29.1593,12.6154 C29.3018,12.538 29.4082,12.4272 29.4785,12.2829 C29.5401,12.1528 29.5709,11.9478 29.5709,11.6682 L29.5709,10.2618 C29.5709,10.1106 29.5366,9.9971 29.468,9.9215 C29.3994,9.8458 29.3088,9.808 29.1962,9.808 C29.0872,9.808 28.9979,9.8463 28.9284,9.9228 C28.8589,9.9993 28.8242,10.1123 28.8242,10.2618 L28.8242,11.4729 C28.8242,11.6277 28.8176,11.7517 28.8044,11.8449 C28.7912,11.9382 28.7556,12.0164 28.6975,12.0798 C28.6395,12.1431 28.5515,12.1748 28.4337,12.1748 C28.3387,12.1748 28.2485,12.1466 28.1632,12.0903 C28.0779,12.034 28.0115,11.9584 27.964,11.8634 C27.9113,11.742 27.8849,11.5274 27.8849,11.2196 M32.2802,11.0956 L30.8713,11.0956 C30.873,10.932 30.906,10.7878 30.9702,10.6629 C31.0344,10.538 31.1197,10.4439 31.2261,10.3806 C31.3326,10.3172 31.45,10.2856 31.5784,10.2856 C31.6646,10.2856 31.7433,10.2957 31.8145,10.3159 C31.8858,10.3361 31.9548,10.3678 32.0217,10.4109 C32.0885,10.454 32.1501,10.5002 32.2064,10.5494 C32.2626,10.5987 32.3356,10.6655 32.4253,10.75 C32.4623,10.7816 32.5151,10.7974 32.5837,10.7974 C32.6575,10.7974 32.7173,10.7772 32.7631,10.7368 C32.8088,10.6963 32.8317,10.6391 32.8317,10.5653 C32.8317,10.5002 32.8062,10.4241 32.7552,10.337 C32.7042,10.25 32.6272,10.1664 32.5243,10.0864 C32.4214,10.0063 32.2921,9.9399 32.1364,9.8872 C31.9808,9.8344 31.8018,9.808 31.5995,9.808 C31.1369,9.808 30.7772,9.9399 30.5203,10.2038 C30.2635,10.4676 30.1351,10.8256 30.1351,11.2777 C30.1351,11.4905 30.1668,11.6879 30.2301,11.87 C30.2934,12.0521 30.3858,12.2082 30.5071,12.3383 C30.6285,12.4685 30.778,12.5683 30.9557,12.6378 C31.1334,12.7073 31.3304,12.742 31.5467,12.742 C31.8282,12.742 32.0696,12.6827 32.271,12.5639 C32.4724,12.4452 32.6232,12.2917 32.7235,12.1035 C32.8238,11.9153 32.8739,11.7236 32.8739,11.5283 C32.8739,11.3471 32.822,11.2297 32.7182,11.1761 C32.6144,11.1224 32.4684,11.0956 32.2802,11.0956 M30.8713,11.5046 L32.1773,11.5046 C32.1597,11.7508 32.0933,11.9351 31.9781,12.0573 C31.8629,12.1796 31.7112,12.2407 31.523,12.2407 C31.3436,12.2407 31.1962,12.1787 31.081,12.0547 C30.9658,11.9307 30.8959,11.7473 30.8713,11.5046 M35.7999,10.75 C35.7999,10.5512 35.7515,10.381 35.6548,10.2394 C35.558,10.0978 35.4151,9.9905 35.226,9.9175 C35.0369,9.8445 34.8069,9.808 34.5361,9.808 C34.2775,9.808 34.0558,9.8476 33.8712,9.9267 C33.6865,10.0059 33.5501,10.1048 33.4622,10.2236 C33.3742,10.3423 33.3303,10.4615 33.3303,10.5811 C33.3303,10.6602 33.3584,10.728 33.4147,10.7843 C33.471,10.8405 33.5422,10.8687 33.6284,10.8687 C33.704,10.8687 33.7621,10.8502 33.8026,10.8133 C33.843,10.7763 33.8817,10.7244 33.9186,10.6576 C33.9925,10.5292 34.0809,10.4333 34.1838,10.37 C34.2867,10.3067 34.427,10.275 34.6047,10.275 C34.7489,10.275 34.8672,10.3071 34.9595,10.3713 C35.0519,10.4355 35.0981,10.509 35.0981,10.5916 C35.0981,10.7183 35.0501,10.8106 34.9543,10.8687 C34.8584,10.9267 34.7005,10.9821 34.4807,11.0349 C34.2326,11.0965 34.0308,11.1611 33.8751,11.2288 C33.7194,11.2966 33.595,11.3858 33.5018,11.4967 C33.4085,11.6075 33.3619,11.7438 33.3619,11.9056 C33.3619,12.0499 33.405,12.1862 33.4912,12.3146 C33.5774,12.443 33.7045,12.5455 33.8725,12.622 C34.0405,12.6985 34.2432,12.7368 34.4807,12.7368 C34.6671,12.7368 34.8347,12.7174 34.9833,12.6787 C35.1319,12.64 35.2559,12.5881 35.3553,12.523 C35.4547,12.458 35.5303,12.3858 35.5822,12.3067 C35.6341,12.2275 35.6601,12.1501 35.6601,12.0745 C35.6601,11.9918 35.6324,11.9241 35.577,11.8713 C35.5215,11.8186 35.4428,11.7922 35.3408,11.7922 C35.2669,11.7922 35.204,11.8133 35.1522,11.8555 C35.1003,11.8977 35.0409,11.961 34.9741,12.0455 C34.9195,12.1158 34.8553,12.1721 34.7814,12.2143 C34.7076,12.2565 34.6073,12.2777 34.4807,12.2777 C34.3505,12.2777 34.2423,12.25 34.1561,12.1945 C34.0699,12.1391 34.0268,12.0701 34.0268,11.9874 C34.0268,11.9118 34.0585,11.8498 34.1218,11.8014 C34.1851,11.753 34.2704,11.713 34.3777,11.6814 C34.485,11.6497 34.6328,11.611 34.821,11.5653 C35.0444,11.5107 35.2269,11.4456 35.3685,11.37 C35.5101,11.2944 35.6174,11.2051 35.6904,11.1022 C35.7634,10.9993 35.7999,10.8819 35.7999,10.75" style="fill:#000000;fill-rule:evenodd;"/>
        </g>
    </g>
</svg>
